<?xml version="1.0" encoding="UTF-8" standalone="no"?>
<svg
   xmlns:dc="http://purl.org/dc/elements/1.1/"
   xmlns:cc="http://creativecommons.org/ns#"
   xmlns:rdf="http://www.w3.org/1999/02/22-rdf-syntax-ns#"
   xmlns:svg="http://www.w3.org/2000/svg"
   xmlns="http://www.w3.org/2000/svg"
   xmlns:sodipodi="http://sodipodi.sourceforge.net/DTD/sodipodi-0.dtd"
   xmlns:inkscape="http://www.inkscape.org/namespaces/inkscape"
   width="35px"
   height="35px"
   viewBox="0 0 35 35"
   version="1.1"
   id="svg39"
   sodipodi:docname="mashup-icon.svg"
   inkscape:version="1.0.2-2 (e86c870879, 2021-01-15)">
  <metadata
     id="metadata43">
    <rdf:RDF>
      <cc:Work
         rdf:about="">
        <dc:format>image/svg+xml</dc:format>
        <dc:type
           rdf:resource="http://purl.org/dc/dcmitype/StillImage" />
      </cc:Work>
    </rdf:RDF>
  </metadata>
  <sodipodi:namedview
     pagecolor="#ffffff"
     bordercolor="#666666"
     borderopacity="1"
     objecttolerance="10"
     gridtolerance="10"
     guidetolerance="10"
     inkscape:pageopacity="0"
     inkscape:pageshadow="2"
     inkscape:window-width="1366"
     inkscape:window-height="705"
     id="namedview41"
     showgrid="false"
     inkscape:zoom="10.869241"
     inkscape:cx="16.561657"
     inkscape:cy="16.294895"
     inkscape:window-x="-8"
     inkscape:window-y="-8"
     inkscape:window-maximized="1"
     inkscape:current-layer="svg39" />
  <!-- Generator: Sketch 46.1 (44463) - http://www.bohemiancoding.com/sketch -->
  <title
     id="title2">Artboard</title>
  <desc
     id="desc4">Created with Sketch.</desc>
  <defs
     id="defs9">
    <polyline
       id="path-1"
       points="4.58645833 30.2888889 0.266666667 26.1111111 0.266666667 0.261111111 26.4013605 0.261111111 26.4013605 26.1111111 9.6 26.1111111 9.6 9.4 21.3333333 9.4" />
    <path
       d="M5.06666667,4.7 L9.86666667,9.66111111"
       id="path-2" />
    <path
       d="M26.4,25.85 L21.6,21.4111111"
       id="path-3" />
    <pattern
       id="EMFhbasepattern"
       patternUnits="userSpaceOnUse"
       width="6"
       height="6"
       x="0"
       y="0" />
  </defs>
  <g
     id="g96"
     transform="matrix(0.11524946,0,0,0.11524946,56.829883,20.183839)">
    <path
       style="fill:#ef7197;fill-opacity:1;fill-rule:nonzero;stroke:none"
       d="m -415.4803,-35.667541 c 1.66667,-8.66667 5.66667,-14.33333 6,-14.66667 1.66667,-2 4.66667,-2.33333 7,-1 2.33334,1.66667 2.66667,4.33334 1,6.66667 -2.33333,3.66667 -5.66666,13.33333 -4,22 1.33334,8.33333 4,15.3333297 18.33334,17.9999997 9,1.66667 10,8.66667 10.33333,13.66667 1,5.6666603 1.66667,12.3333303 10.33334,20.0000003 3.33333,3 7.66666,5.33333 12.33333,7.66666 2.33333,1 4.66667,2.33334 7,3.66667 3.66667,-7.33333 6.66667,-20.33333 6.33333,-28 -0.33333,-9.6666703 -3.66666,-18.6666703 -9.66666,-26.33333 -1.33334,-1.66667 -1.33334,-1.66667 -1.33334,-1.66667 0.66667,-2 0.66667,-2 0.66667,-2 0.66667,-3.66667 1,-7.33333 0.66667,-11 -1.66667,0.66667 -4,1 -6.33334,1 -9.66666,0 -17,-3.66667 -22,-9.66667 -8.66667,-10.33333 -6.66667,-22 -6.33333,-28 0.33333,-5.999997 0.66666,-10.999997 1.33333,-17.666663 1.33333,-10.666667 2.66667,-23.666666 1.66667,-28.333336 -3.33334,-14.66666 -10.66667,-14.33333 -13.66667,-14.33333 -2.66667,0.33333 -5,-2 -5,-4.33333 0,-2.66667 2,-5 5,-5 6.66667,-0.33334 19,2.33333 23.66667,21.66666 1.33333,6 0,18.666669 -1.33334,31.333336 -1,6.666666 -1.33333,11.666666 -1.66666,17.000003 0,5.66666 -1,15.66666 4.33333,21.66666 3,4 8,6 14.66667,6.33334 2.33333,0 8,-2.33334 10.66667,-7.33334 1.66666,-3.66666 2.66666,-7.66666 2.33333,-12 0,-6 -2.33333,-11.999997 -6.33333,-16.666663 -2.33334,-3 -2.33334,-3 -2.33334,-3 2.33334,-3 2.33334,-3 2.33334,-3 4.66666,-5.333334 7.33333,-12.333334 7,-19.333334 0,-5.666662 -2,-11.333332 -5.66667,-16.000002 -2.33333,-3 -2.33333,-3 -2.33333,-3 2.33333,-2.66666 2.33333,-2.66666 2.33333,-2.66666 4.66667,-5.33334 7,-12.33334 6.66667,-19 -0.66667,-16.66667 -12,-28.33334 -28.33334,-27.66667 -11,0.33333 -19.33333,5 -24,15.66667 -11,-3 -24.33333,6.66666 -27.33333,16.33333 -3,10.33333 -1,22.33333 11.66666,37.333332 2,2.333334 4,4.333334 6,6 2,2 2.33334,5 0.33334,7 -1,1 -2.33334,1.333334 -3.66667,1.333334 -1,0 -2.33333,-0.333334 -3.33333,-1 -2.66667,-2.333334 -5,-4.666667 -7.33334,-7.333334 -9,-11.000002 -12.33333,-23.000002 -13.33333,-31.333332 -19.33333,13 -21.66667,37.333332 -13,50.333332 -11.33333,16.999997 6,37.666667 28.33333,36.666667 z"
       id="path73" />
    <path
       style="fill:#ef7197;fill-opacity:1;fill-rule:nonzero;stroke:none"
       d="m -359.14696,44.999129 c -5,-2.33334 -10,-5.33334 -14.33334,-9 -11,-10 -12.33333,-19.66667 -13.33333,-26.0000003 -0.66667,-5 -0.66667,-5 -2.33333,-5.33334 -8.33334,-1.66666 -14,-4.33333001 -17.66667,-7.66666 -5,2.33332999 -9.66667,3.33332999 -14.33333,3.33332999 -13,0.33333 -23,-5.66666999 -23.33334,-5.99999999 -2.33333,-1.33333 -3,-4.3333297 -1.33333,-6.6666697 1.33333,-2 4.66667,-2.66666 7,-1.33333 0.33333,0.33333 12.66667,7.6666697 26,3 -1.33333,-3 -4,-8.66667 -3.66667,-15.33333 -21.33333,0.33333 -41,-12 -41.66666,-33 -27.66667,40.33333 5,78 42.33333,88.66666 10,3 17.33333,13 17.33333,23.33334 0,2 -0.33333,4.66666 -1.33333,7.66666 4,0.66667 8.66667,2 13.33333,4.33334 -1,-7.33334 -0.33333,-13.33334 -0.33333,-13.66667 0.66667,-2.66667 3,-4.33333 6,-4 2.66667,0.33333 4.66667,2.66667 4,5.33333 0,0 -2.33333,15.33334 4.33333,22.33334 3.66667,3.66666 7.33334,10 8.33334,17 0.33333,2.33333 -1.66667,5 -4.33334,5.33333 -0.33333,0 -0.33333,0 -0.66666,0 -2.33334,0 -4.66667,-1.66667 -5,-4 -3,-20.33333 -24,-23.33333 -31.33334,-24 -3,3.33333 -8,6.66667 -15.33333,9 -0.33333,0.33333 -1,0.33333 -1.33333,0.33333 -2.33334,0 -4.33334,-1 -5,-3 -1,-2.66666 0.66666,-5.33333 3,-6.33333 10.33333,-3.33333 15.66666,-9 15.66666,-16 0,-6.33333 -4.66666,-13 -10.33333,-14.66667 -21,-6.33333 -36,-17 -45.66667,-31.3333303 -12,32.0000003 14.33334,45.3333303 31.33334,43.6666703 2.66666,-0.33334 5,1.33333 5.33333,4 0.33333,2.66666 -1.33333,5 -4.33333,5.33333 -1.33334,0 -2.66667,0.33333 -4,0.33333 -5.66667,0 -11,-1 -15.33334,-2.33333 -4,17.66667 14,47.000001 47,35 4,23.000001 38.00001,33.666671 57.66667,11.666671 19.33334,-21.666671 6,-52.333341 -12.33333,-60.000001 z"
       id="path75" />
    <path
       style="fill:#ef7197;fill-opacity:1;fill-rule:nonzero;stroke:none"
       d="m -334.81363,-101.00087 c 0,1.333329 0.33334,2.333329 0.33334,3.666662 4,-5.333332 8.33333,-9.666662 11.33333,-12.000002 1,-1 2.33333,-1.66666 3.33333,-2.66666 10.66667,-8.33334 16,-12.66667 15,-26.66667 -0.33333,-2.66667 2,-4.66667 4.66667,-5 2.66667,-0.33333 5,1.66667 5,4.33333 1.33333,18.66667 -7,25.33334 -18.33333,34.33334 -1,1 -2.33334,1.66666 -3.33334,2.66666 -4.33333,3.333336 -9.66666,9.666669 -13.33333,15.666669 0,0 0,0 0,0 -1,2.333333 -1,2.333333 -1,2.333333 -1.66667,4 -2.66667,8 -2.66667,12.333334 0.33334,4.333333 1.33334,8.333333 3.33334,12.000003 1,1.66666 1,1.66666 1,1.66666 -1,2 -1,2 -1,2 -2,5 -3,10.33334 -2.66667,15.66667 0,4.33333 1,8.66667 2.66667,12.66667 3.33333,-4.33334 8,-8.33334 13.66666,-11.33334 8,-4.33333 17.66667,-6.33333 24.33334,-5.33333 10,-11 23.66666,-17.66667 38.66666,-18 0,0 0,0 0.33334,0 8.66666,-0.33333 25.66666,2 33,12.33333 3.33333,-18.33333 -3.33334,-33.666663 -22.33334,-37.33333 3.66667,-15.333329 -5.66666,-29.333329 -14.66666,-33.999999 -3.66667,10.33333 -9.66667,16.33333 -15.66667,20.66667 2.33333,3.333329 7.66667,11.666662 7.66667,20.333329 0,2.666667 -2,4.666667 -4.66667,4.666667 0,0 0,0 0,0 -2.66667,0 -5,-2 -5,-4.333334 0,-6.333333 -4.33333,-12.666666 -6,-15.333333 -8,5.333333 -15.33333,11 -20,25 -0.66667,2 -2.33333,3.333333 -4.33333,3.333333 -0.66667,0 -1.33334,0 -1.66667,0 -2.66667,-1 -4,-3.333333 -3.33333,-6 6,-18.333333 16.33333,-25 25.66666,-31.000002 7.66667,-5 14.66667,-9.33333 18.33334,-21 0.66666,-3.66666 0.66666,-3.66666 0.66666,-3.66666 0.33334,-2.33334 0.66667,-4.66667 0.66667,-7 -0.66667,-17.66667 -16.33333,-31.33334 -35,-31 -19,0.66666 -33.66667,15.66666 -33.33333,33.33333 0.33333,4.33333 1.33333,8.66667 3.33333,12.66667 1.33333,2.33333 1.33333,2.33333 1.33333,2.33333 -1.33333,2 -1.33333,2 -1.33333,2 -3.33333,4.66667 -4.66667,10.33333 -4.66667,15.66667 z"
       id="path77" />
    <path
       style="fill:#ef7197;fill-opacity:1;fill-rule:nonzero;stroke:none"
       d="m -217.48029,12.332459 c -4,4.66667 -8.33334,8.66667 -9,9.33333 -1,1 -2,1.33334 -3.33334,1.33334 -1.33333,0 -2.66666,-0.33334 -3.66666,-1.33334 -2,-2 -1.66667,-4.66666 0,-6.66666 2.33333,-1.66667 7,-6.3333403 10.33333,-11.0000003 0,0 0,0 0,0 1.66667,-2.66667 1.66667,-2.66667 1.66667,-2.66667 4,-6.33333 6,-13.6666697 5.66666,-20.6666697 -0.33333,-10 -4.33333,-19 -12,-26 -0.33333,-0.33333 -0.66666,-0.66666 -1,-1 -0.33333,0 -0.33333,0 -0.33333,0 -6,-5 -15,-7.66666 -24.33333,-7.33333 -7.66667,0.33333 -22,3 -33.33334,17 -2,2.66667 -2,2.66667 -2,2.66667 -3.33333,-1.33334 -3.33333,-1.33334 -3.33333,-1.33334 -3.33333,-1 -11.33333,-0.33333 -19.66667,4 -6.33333,3 -13.33333,9.33334 -16,19.66667 -4.33333,16.3333297 8,25.66667 12.66667,29 2,1.33333 3,4 1.66667,6 -0.66667,1.66667 -2.33334,2.33333 -4,2.33333 -1,0.33334 -1.66667,0 -2.66667,-0.33333 -3.66667,-2 -8.66667,-6 -12.66667,-11.66667 -1,3.33334 -1.66666,7.33334 -1.66666,11 0.33333,7.33334 3,14.33334 7.66666,20 1.33334,1.66667 1.33334,1.66667 1.33334,1.66667 4.33333,4.66667 10,9 14.33333,12.33333 2.33333,1.66667 4,3.33334 5.66667,4.33334 13.33333,11.66666 10.66666,26 7.66666,32 -1,1.33333 -2.66666,2.33333 -4.33333,2.33333 -0.66667,0 -1.66667,0 -2.33333,-0.33333 -2.33334,-1.33334 -3.33334,-4 -2,-6.33334 0.33333,-1 5.33333,-11.33333 -5.66667,-20.66666 -1.33333,-1.33334 -3,-2.66667 -5,-4 -3.66667,-2.66667 -7.66667,-6 -11.33333,-9.33334 -0.33334,1.33334 -0.33334,2.66667 -0.33334,4 0,3.66667 1,7 2.66667,10 1.33333,2.33334 1.33333,2.33334 1.33333,2.33334 -1.33333,2 -1.33333,2 -1.33333,2 -2.66667,4.66666 -4,9.66666 -4,14.66666 0.66667,15.666671 14.33333,27.666671 31,27.333341 11.66667,-0.33334 21.66667,-7 26.33333,-17.000001 1,-1.66667 1,-1.66667 1,-1.66667 2,-0.66667 2,-0.66667 2,-0.66667 5.33334,-2 10,-5.33333 13,-10 -4,-0.33333 -8,-1.66666 -11.66666,-4 -6.66667,-4 -10.66667,-10.33333 -11.66667,-18 -0.66667,-6.66666 1.33333,-14.33333 3.66667,-20 -4,1.33334 -8.33334,2 -12.33334,2 -4,0.33334 -8,-0.33333 -10.66666,-1.33333 -2.33334,-1 -3.66667,-3.66667 -2.66667,-6 1,-2.33333 4,-3.33333 6.33333,-2.66667 5.66667,2.33334 22.66667,0.33334 28.66667,-10 6,-11 7.66667,-16.66666 5.33333,-22.0000003 -2,-5.00000001 -6.33333,-7 -9.33333,-7.66666 -6,-1.33334 -12.66667,0.66666 -17.66667,5.33333 -2,1.66667 -5,1.66667 -7,-0.33333 -1.66666,-1.66667 -1.66666,-4.66667 0.33334,-6.33334 6,-5.66666 14,-8.3333297 22,-7.9999997 2,-8.66666 0,-17 0,-17 -0.66667,-2.33333 1,-5 3.66666,-5.66666 2.66667,-0.33334 5.33334,1 6,3.33333 0,0.66667 2.66667,10.66667 -0.33333,21.3333297 5.33333,2.33334 9.33333,6.33334 11.66667,11.66667 4.66666,11.3333303 -1,21.6666703 -10.66667,37.3333303 0,0.33334 -8.33333,14.66667 -7.33333,25.33334 0.66666,4.66666 3.33333,8.66666 7.33333,11 27,15.66666 59,-28 45.66667,-63.66667 z"
       id="path79" />
  </g>
</svg>
